<svg xmlns="http://www.w3.org/2000/svg" version="1.1" xmlns:xlink="http://www.w3.org/1999/xlink" width="29" height="38"><svg width="29" height="38" viewBox="0 0 29 38" fill="none" xmlns="http://www.w3.org/2000/svg">
<path d="M28.77 -1.35899e-05V34.965C28.77 36.19 28.5775 36.995 28.1925 37.38C27.8425 37.765 27.0725 37.9575 25.8825 37.9575H18.4275C16.3625 37.9575 14.9975 37.6425 14.3325 37.0125C13.7025 36.3825 13.1425 34.755 12.6525 32.13C11.6725 26.95 10.255 18.585 8.39997 7.03499C8.25997 6.15999 8.04997 5.59999 7.76997 5.35499C7.52497 5.10999 7.08747 4.96999 6.45747 4.93499H-2.90684e-05V-1.35899e-05H11.3925C12.2675 -1.35899e-05 12.9675 0.104987 13.4925 0.314989C14.0175 0.524988 14.4375 0.979987 14.7525 1.67999C15.1025 2.34499 15.33 2.99249 15.435 3.62249C15.575 4.25249 15.715 4.98749 15.855 5.82749C16.03 6.84249 16.275 8.32999 16.59 10.29C17.185 14.245 18.1125 19.8275 19.3725 27.0375C19.8625 30.1175 20.195 31.85 20.37 32.235C20.58 32.585 20.93 32.795 21.42 32.865V2.09999C21.42 1.46999 21.595 0.962488 21.945 0.577488C22.295 0.192487 22.75 -1.35899e-05 23.31 -1.35899e-05H28.77ZM-2.90684e-05 6.77249H5.45997C6.01997 6.77249 6.47497 6.96499 6.82497 7.34999C7.17497 7.73499 7.34997 8.24249 7.34997 8.87249V34.965C7.34997 36.155 7.19247 36.96 6.87747 37.38C6.56247 37.765 5.93247 37.9575 4.98747 37.9575H-2.90684e-05V6.77249Z" fill="url(#paint0_linear_81_14)"></path>
<defs>
<linearGradient id="SvgjsLinearGradient1048" x1="33.22" y1="17.9575" x2="-3.78003" y2="17.9575" gradientUnits="userSpaceOnUse">
<stop stop-color="#D07A00"></stop>
<stop offset="1" stop-color="#B80000"></stop>
</linearGradient>
</defs>
</svg><style>@media (prefers-color-scheme: light) { :root { filter: none; } }
@media (prefers-color-scheme: dark) { :root { filter: none; } }
</style></svg>